<svg width="20" height="20" viewBox="0 0 20 20" fill="none" xmlns="http://www.w3.org/2000/svg">
<rect width="20" height="20" rx="10" fill="#615CCD"/>
<circle cx="10" cy="10" r="10" fill="#615CCD"/>
<path d="M9.22137 11.1687V11.9452C9.22137 12.1626 9.05053 12.3335 8.8331 12.3335H8.05658C7.83915 12.3335 7.66831 12.1626 7.66831 11.9452V8.06256C7.66831 7.84514 7.83915 7.6743 8.05658 7.6743H8.28177C8.63121 7.6743 8.80204 7.25498 8.55355 7.01425L7.17134 5.61651C7.13551 5.57964 7.09266 5.55033 7.04531 5.53032C6.99796 5.51031 6.94708 5.5 6.89567 5.5C6.84427 5.5 6.79338 5.51031 6.74603 5.53032C6.69868 5.55033 6.65583 5.57964 6.62 5.61651L5.23002 7.01425C4.98153 7.25498 5.16014 7.6743 5.50181 7.6743H5.727C5.94443 7.6743 6.11526 7.84514 6.11526 8.06256V13.4982C6.11526 13.7157 6.2861 13.8865 6.50353 13.8865H10.3862C10.6036 13.8865 10.7744 13.7157 10.7744 13.4982V11.1687C10.7744 10.9512 10.6036 10.7804 10.3862 10.7804H9.60963C9.39997 10.7804 9.22137 10.9512 9.22137 11.1687Z" fill="white"/>
<path d="M14.2687 12.3335C14.0513 12.3335 13.8805 12.1626 13.8805 11.9452V6.50954C13.8805 6.29211 13.7096 6.12128 13.4922 6.12128H9.60958C9.39215 6.12128 9.22131 6.29211 9.22131 6.50954V8.83912C9.22131 9.05655 9.39215 9.22738 9.60958 9.22738H10.3861C10.6035 9.22738 10.7744 9.05655 10.7744 8.83912V8.06259C10.7744 7.84516 10.9452 7.67433 11.1626 7.67433H11.9392C12.1566 7.67433 12.3274 7.84516 12.3274 8.06259V11.9452C12.3274 12.1626 12.1566 12.3335 11.9392 12.3335H11.714C11.3645 12.3335 11.1937 12.7528 11.4422 12.9935L12.8322 14.3835C12.9875 14.5388 13.2282 14.5388 13.3835 14.3835L14.7735 12.9935C15.0142 12.7528 14.8434 12.3335 14.5017 12.3335H14.2687Z" fill="white"/>
</svg>
