<svg width="24" height="24" viewBox="0 0 24 24" fill="none" xmlns="http://www.w3.org/2000/svg">
<g clip-path="url(#clip0_601_85094)">
<path d="M12 22C17.5228 22 22 17.5228 22 12C22 6.47715 17.5228 2 12 2C6.47715 2 2 6.47715 2 12C2 17.5228 6.47715 22 12 22Z" fill="#F5F0FD"/>
<path d="M14.893 14.1579L17.7222 12.5242C17.8721 12.4377 17.9648 12.2768 17.9648 12.1037V8.83677C17.9648 8.66405 17.8717 8.50277 17.7222 8.4162L14.893 6.78254C14.7432 6.69598 14.5574 6.69639 14.4075 6.78254L11.5783 8.4162C11.4285 8.50277 11.3358 8.66405 11.3358 8.83677V14.6752L9.3518 15.8206L7.3678 14.6752V12.3842L9.3518 11.2389L10.6604 11.9943V10.4574L9.59433 9.84203C9.52084 9.79957 9.43673 9.77711 9.35139 9.77711C9.26605 9.77711 9.18194 9.79957 9.10885 9.84203L6.27965 11.4757C6.1298 11.5623 6.03711 11.7231 6.03711 11.8963V15.1632C6.03711 15.3359 6.1302 15.4972 6.27965 15.5837L9.10885 17.2174C9.25829 17.3036 9.44448 17.3036 9.59433 17.2174L12.4235 15.5841C12.5734 15.4976 12.6661 15.3363 12.6661 15.1636V9.32511L12.702 9.30469L14.6501 8.17979L16.6341 9.32511V11.6162L14.6501 12.7615L13.3435 12.0069V13.5438L14.4075 14.1583C14.5574 14.2445 14.7432 14.2445 14.893 14.1583V14.1579Z" fill="url(#paint0_linear_601_85094)"/>
</g>
<defs>
<linearGradient id="paint0_linear_601_85094" x1="7.05054" y1="15.6095" x2="17.3025" y2="8.13406" gradientUnits="userSpaceOnUse">
<stop stop-color="#A726C1"/>
<stop offset="0.88" stop-color="#803BDF"/>
<stop offset="1" stop-color="#7B3FE4"/>
</linearGradient>
<clipPath id="clip0_601_85094">
<rect width="20" height="20" fill="white" transform="translate(2 2)"/>
</clipPath>
</defs>
</svg>
